<svg version="1.2" baseProfile="tiny-ps" xmlns="http://www.w3.org/2000/svg" viewBox="0 0 1236 624" width="300" height="151">
	<title>logo</title>
	<style>
		tspan { white-space:pre }
		.shp0 { fill: #ffffff } 
	</style>
	<path id="Path 0" fill-rule="evenodd" class="shp0" d="M505.25 38.44C508.74 38.78 513.85 40.34 518.25 42.42C522.9 44.62 527.65 47.93 531.51 51.67C534.82 54.88 538.98 59.64 540.76 62.25C543.58 66.38 544.75 67.21 549.75 68.62C552.91 69.52 559.55 71.92 564.5 73.97C569.45 76.01 576.88 79.6 581 81.93C585.13 84.26 590.45 87.59 592.83 89.33C595.21 91.08 599.94 94.92 603.33 97.88C606.72 100.84 611.75 105.84 614.5 109C617.25 112.15 621.08 116.87 623 119.48C624.92 122.09 627.69 125.41 629.14 126.86C630.6 128.31 633.18 132.31 634.89 135.75C636.6 139.19 639.29 145.94 640.86 150.75C642.43 155.56 644.25 162.65 644.91 166.5C645.56 170.35 646.27 174.4 646.47 175.5C646.68 176.6 646.88 178.51 646.92 179.75C646.99 181.71 648.73 180.66 660.25 171.78C667.54 166.15 673.73 161.16 674 160.69C674.27 160.22 674.95 159.88 675.5 159.94C676.05 160.01 679.2 159.07 682.5 157.87C685.8 156.67 688.82 155.42 689.2 155.09C689.59 154.77 694.09 154.56 699.2 154.64C704.55 154.72 711.05 155.51 714.5 156.49C717.8 157.43 723.76 159.73 727.75 161.6C732.24 163.7 736.91 166.91 740 170C742.75 172.75 745.96 177.14 747.13 179.75C748.3 182.36 749.49 186.98 749.77 190C750.11 193.59 749.76 197.06 748.75 200C747.9 202.48 746.84 205.4 746.39 206.5C745.94 207.6 750.74 203.32 757.06 197C763.37 190.68 772.36 182.53 777.02 178.91C781.68 175.28 789.1 170.22 793.5 167.67C797.9 165.11 803.98 162.16 807 161.1C810.02 160.04 817 158.64 822.5 157.98C831.28 156.92 833.29 156.99 839 158.49C842.58 159.43 847.08 161 849 161.97C850.92 162.95 855.09 166.05 858.25 168.87C861.41 171.69 864.45 174 865 174C865.55 174 866.92 175.24 868.05 176.75C869.18 178.26 871.43 182.99 873.05 187.25C874.73 191.67 876 196.94 876 199.5C876 201.98 876.45 204 877 204C877.55 204 877.99 203.66 877.98 203.25C877.97 202.84 880.57 198.9 883.77 194.5C886.97 190.1 892.49 183.72 896.04 180.32C899.59 176.92 905.65 171.82 909.5 168.99C913.35 166.15 919.65 162.34 923.5 160.52C927.35 158.7 933.42 156.49 937 155.61C940.58 154.73 946.65 154.01 950.5 154C954.35 154 960.09 154.67 963.25 155.49C966.41 156.32 971.81 158.38 975.25 160.06C978.69 161.74 983.26 164.33 985.4 165.81C987.55 167.29 989.8 169.33 990.4 170.34C991.01 171.35 993.3 173.96 995.5 176.13C997.7 178.31 1000.06 180.07 1000.75 180.04C1001.44 180.02 1003.46 181.75 1005.25 183.9C1007.04 186.04 1010.25 191.33 1012.39 195.65C1014.52 199.97 1016.88 206.43 1017.62 210C1018.36 213.57 1018.98 218.98 1018.99 222C1019.01 225.02 1018.16 230.88 1017.11 235C1016.05 239.13 1015.03 243.16 1014.84 243.96C1014.65 244.76 1013.7 246.34 1012.73 247.46C1011.76 248.58 1010.99 249.95 1011.02 250.5C1011.06 251.05 1010.39 252.06 1009.54 252.75C1008.7 253.44 1008.22 254.45 1008.5 255C1008.78 255.55 1008.33 256.23 1007.5 256.5C1006.67 256.77 1005.55 257.9 1005 259C1004.18 260.64 1004.4 261.16 1006.25 261.88C1007.49 262.36 1010.41 264.61 1012.75 266.88C1015.09 269.15 1017.67 272.57 1018.5 274.5C1019.33 276.43 1020.27 280.59 1020.61 283.75C1021.08 288.22 1020.72 290.95 1019.01 296C1017.8 299.57 1014.72 305.64 1012.16 309.48C1009.6 313.32 1005.03 319.13 1002 322.39C998.97 325.64 994.25 329.96 991.5 331.98C988.75 334 983.58 337.28 980 339.26C976.42 341.25 971.25 343.62 968.5 344.53C965.75 345.45 963.13 346.49 962.67 346.85C962.21 347.21 962.41 348.63 963.12 350C963.83 351.38 964.49 352.95 964.59 353.5C964.69 354.05 965.25 356.98 965.83 360C966.52 363.64 966.56 367.79 965.94 372.25C965.42 375.96 962.79 384.96 960.09 392.25C957.39 399.54 953.79 408.99 952.09 413.25C950.39 417.51 949.22 421.45 949.5 422C949.78 422.55 949.55 423.23 949 423.5C948.45 423.77 948 424.45 948 425C948 425.55 948.34 425.82 948.75 425.6C949.16 425.38 953.33 425.85 958 426.64C962.96 427.49 969.41 429.46 973.5 431.39C977.35 433.21 982.86 436.57 985.75 438.85C988.64 441.13 992.88 445.59 995.19 448.75C997.49 451.91 1000.64 457.2 1002.18 460.5C1003.73 463.8 1005.03 467.17 1005.08 468C1005.12 468.83 1006.01 465.67 1007.06 461C1008.12 456.33 1009.4 450.48 1009.92 448C1010.43 445.52 1011.99 441.48 1013.37 439C1014.75 436.52 1018.38 432.36 1021.44 429.75C1024.5 427.14 1027 424.33 1027 423.5C1027 422.67 1028.35 421.55 1030 421C1031.65 420.45 1032.99 419.44 1032.97 418.75C1032.96 418.06 1033.29 417.83 1033.72 418.24C1034.15 418.65 1034.95 418.58 1035.5 418.08C1036.05 417.58 1039.88 416.51 1044 415.7C1048.52 414.81 1052.1 414.57 1053 415.1C1053.83 415.58 1054.84 415.98 1055.25 415.98C1055.66 415.99 1051.05 411.05 1045 405C1035.97 395.97 1033.89 393.33 1033.37 390.25C1033.03 388.19 1033.17 385.83 1033.7 385C1034.22 384.17 1036.19 382.68 1038.07 381.68C1040.79 380.24 1043.06 379.96 1049 380.3C1053.13 380.54 1059.88 381.76 1064 383C1068.34 384.31 1072.45 386.26 1073.75 387.63C1074.99 388.93 1077.69 390.29 1079.75 390.65C1081.81 391.01 1085.15 392.47 1087.17 393.9C1089.18 395.33 1093.17 398.52 1096.03 401C1098.89 403.48 1101.13 405.05 1101 404.5C1100.87 403.95 1100.85 403.27 1100.96 403C1101.07 402.73 1101.39 401.6 1101.68 400.5C1101.96 399.4 1102.63 395.35 1103.17 391.5C1103.7 387.65 1104.44 383.42 1104.81 382.11C1105.19 380.79 1106.4 379.36 1107.5 378.93C1109.1 378.3 1110.9 379.39 1116.42 384.32C1120.23 387.72 1125.4 393.27 1127.92 396.64C1130.44 400.02 1132.95 403.58 1133.5 404.54C1134.45 406.19 1134.69 406.19 1138 404.59C1139.92 403.66 1142.62 403.03 1144 403.2C1145.8 403.42 1147 404.61 1148.33 407.5C1150.04 411.23 1150.06 411.74 1148.56 415C1147.67 416.92 1145.69 419.85 1141.33 424.5L1148.92 426.29C1153.09 427.28 1158.97 429.27 1162 430.73C1165.03 432.18 1169.41 434.64 1171.75 436.19C1174.09 437.73 1176 438.77 1176 438.5C1176 438.23 1177.8 439.8 1180 442C1182.2 444.2 1183.78 446.45 1183.5 447C1183.17 447.67 1183.67 447.67 1185 447C1186.1 446.45 1189.36 445.94 1192.25 445.88C1195.33 445.8 1198.84 446.42 1200.75 447.38C1202.54 448.27 1204 448.77 1204 448.5C1204 448.23 1205.58 450.02 1207.5 452.5C1209.42 454.98 1211.29 458.24 1211.64 459.75C1211.99 461.26 1212.67 462.95 1213.15 463.5C1213.64 464.07 1213.6 465.58 1213.05 467C1212.52 468.38 1212.32 469.73 1212.59 470C1212.87 470.27 1211.95 472.19 1210.55 474.25C1209.15 476.31 1208.2 478.34 1208.45 478.75C1208.7 479.16 1206.79 480.69 1204.2 482.14C1201.62 483.59 1197.92 485.08 1196 485.45C1194.08 485.82 1190.25 485.62 1187.5 485C1184.75 484.38 1181.6 483.04 1180.5 482.01C1178.51 480.15 1178.5 480.18 1178.81 486.82C1179.04 491.61 1178.41 496.19 1176.6 503C1174.71 510.09 1172.6 514.9 1168.28 521.96C1164.47 528.21 1158.93 535.13 1152 542.33C1146.22 548.33 1137.9 556.26 1133.5 559.95C1129.1 563.64 1123.31 568.2 1120.64 570.08C1117.97 571.96 1114.98 573.95 1114.01 574.5C1113.03 575.05 1111.05 576.51 1109.61 577.75C1108.18 578.99 1105.86 580.56 1104.47 581.25C1103.08 581.94 1101.96 582.84 1101.97 583.25C1101.99 583.66 1101.55 584 1101 584C1100.45 584 1096.38 586.14 1091.94 588.75C1087.51 591.36 1082.68 594.22 1081.19 595.1C1079.71 595.98 1075.24 597.9 1071.25 599.35C1067.26 600.81 1061.86 602.06 1059.25 602.13C1056.64 602.2 1052.7 601.77 1050.5 601.18C1048.3 600.58 1044.7 598.8 1042.5 597.21C1040.3 595.63 1036.36 591.78 1033.75 588.67C1031.14 585.55 1029.22 583 1029.5 583C1029.78 583 1029.41 581.99 1028.7 580.75C1027.98 579.51 1025.92 574.45 1024.11 569.5C1022.31 564.55 1020.02 558.25 1019.02 555.5C1018.02 552.75 1016.02 546.23 1014.58 541C1013.14 535.77 1010.97 526.33 1009.76 520C1008.55 513.67 1007.4 509.63 1007.2 511C1007 512.38 1005.92 516.65 1004.81 520.5C1003.69 524.35 1002.12 529.75 1001.31 532.5C1000.44 535.44 999.48 545.12 998.99 556C998.53 566.17 997.64 576.08 997.01 578C996.39 579.92 994.22 583.71 992.19 586.41C990.16 589.11 986.92 592.58 985 594.12C983.02 595.71 978.67 597.63 975 598.55C970.71 599.63 966.8 599.96 963.5 599.53C960.75 599.17 957.15 598.4 955.5 597.82C953.85 597.24 950.59 595.92 948.25 594.88C945.91 593.85 943.21 591.87 942.25 590.49C941.29 589.11 938.03 585.52 935 582.51C931.97 579.49 928.15 575.74 926.5 574.16C924.85 572.58 922.15 568.67 920.5 565.46C918.85 562.26 917.35 558.93 917.17 558.07C916.98 557.21 916.6 552.23 916.31 547C915.92 540.01 916.23 535.51 917.5 530C918.44 525.88 919.84 520.36 920.61 517.75C921.37 515.14 921.78 512.55 921.5 512C921.22 511.45 920.55 511 920 511C919.45 511 919.01 511.56 919.02 512.25C919.03 512.94 917.21 515.98 914.98 519C912.75 522.02 909.39 527.65 907.51 531.5C905.63 535.35 903.94 539.4 903.77 540.5C903.59 541.6 903.03 543.17 902.53 544C902.04 544.83 901.45 548.88 901.22 553C901 557.13 899.87 563.42 898.7 567C897.09 571.92 895.41 574.65 891.79 578.25C889.15 580.86 885.09 583.93 882.75 585.06C879.07 586.84 877.23 587.04 869 586.58C863.78 586.29 858.38 585.91 857 585.73C855.29 585.52 852.76 586.74 849 589.6C845.97 591.91 840.91 595.19 837.75 596.9C834.59 598.6 832 600.34 832 600.75C832.01 601.16 830.09 602.01 827.75 602.64C825.41 603.27 820.8 604.59 817.5 605.58C813.38 606.81 808.05 607.39 800.5 607.42C791.31 607.46 788.35 607.07 782.5 605.02C778.65 603.67 772.35 600.48 768.5 597.93C764.65 595.38 759.25 590.86 756.5 587.88C753.75 584.9 750.08 580 748.35 576.98C746.61 573.97 744.23 568.35 743.06 564.5C741.61 559.75 740.87 554.45 740.77 548C740.64 540.85 740.99 537.88 742.18 536C743.05 534.63 743.93 531.92 744.13 530C744.4 527.41 744.12 526.5 743.02 526.5C742.12 526.5 740.42 529.25 738.71 533.5C737.15 537.35 734.52 545.45 732.87 551.5C730.65 559.6 729 563.56 726.6 566.5C724.82 568.7 720.46 572.44 716.93 574.8C713.39 577.17 708.92 579.36 707 579.66C704.97 579.98 701.51 579.54 698.75 578.61C696.14 577.72 692.2 575.88 690 574.5C687.8 573.13 684.09 569.53 677.5 561.01L676.89 565.25C676.55 567.59 675.39 571.52 674.31 574C673.23 576.48 670.98 580.08 669.31 582C667.64 583.92 664.52 586.71 662.38 588.18C660.25 589.66 655.8 591.4 652.5 592.07C647.93 592.98 645.19 593 641 592.13C637.98 591.5 633.26 589.53 630.53 587.74C627.79 585.96 625.09 583.57 624.53 582.44C623.96 581.3 621.48 577.93 619.01 574.94C616.55 571.95 614.07 569.2 613.51 568.82C612.96 568.45 610.02 570.28 607 572.89C603.98 575.5 599.48 579.07 597 580.84C594.52 582.6 588.56 585.38 583.75 587.02C577.97 588.99 573.05 589.99 569.25 589.98C566.09 589.97 560.8 589.25 557.5 588.38C554.2 587.51 549.25 585.66 546.5 584.26C543.75 582.86 540.01 580.54 534.9 576.5L529.2 579.37C526.06 580.95 522.83 582.77 522 583.42C521.17 584.06 518.02 585.55 515 586.71C511.98 587.88 507.7 589.4 505.5 590.1C503.29 590.8 497.03 591.34 491.5 591.31C483.24 591.25 480.19 590.77 474 588.53C469.88 587.03 464.7 584.66 462.5 583.24C460.3 581.83 456.59 579.4 454.25 577.84C451.91 576.28 449.44 575.02 448.75 575.04C448.06 575.06 445.43 572.47 442.89 569.29C440.36 566.1 437.61 562.15 436.78 560.5C435.95 558.85 434.53 555.25 433.63 552.5C432.72 549.75 431.51 545.02 430.94 542C430.36 538.98 429.86 535.83 429.82 535C429.78 534.17 430.02 531.48 430.37 529C430.72 526.52 431.22 522.48 431.5 520C431.77 517.52 431.73 516.17 431.41 517C431.09 517.83 430.22 519.85 429.5 521.5C428.77 523.15 427.88 526.75 427.52 529.5C427.17 532.25 426.17 536.3 425.31 538.5C424.46 540.7 422.8 544.47 421.63 546.87C420.46 549.27 417.36 553.21 414.75 555.62C412.14 558.03 408.42 560.67 406.5 561.5C404.58 562.33 402.82 563.34 402.6 563.75C402.37 564.16 398.74 564.27 394.52 564C388.5 563.61 386.57 563.82 385.52 565C384.79 565.83 382.9 569.16 381.34 572.42C379.57 576.12 376.62 579.99 373.5 582.74C370 585.82 366.55 587.73 362 589.11C357.32 590.52 354.24 590.87 351 590.38C348.52 590 344.02 588.58 341 587.23C337.98 585.89 332.8 582.55 329.5 579.83C325.58 576.6 322.98 575.11 322 575.56C321.17 575.94 317.8 576.85 314.5 577.59C311.2 578.33 304.68 578.95 300 578.98C294.2 579.01 289.75 578.44 286 577.16C282.98 576.13 278.02 574.04 275 572.51C271.98 570.99 266.85 567.89 263.62 565.62C260.39 563.35 255.2 558.35 252.1 554.5C249.01 550.65 245.8 546.02 244.98 544.21C244.17 542.4 242.94 540.94 242.25 540.96C241.56 540.98 238.86 542.4 236.25 544.12C233.64 545.84 230.38 548.08 229 549.12C227.63 550.15 224.93 551.83 223 552.86C221.07 553.89 218.78 555.8 217.9 557.12C217.02 558.43 211.17 562.16 204.9 565.42C198.63 568.67 193.27 571.6 193 571.92C192.73 572.24 191.6 572.65 190.5 572.83C189.4 573.01 187.49 573.8 186.25 574.58C185.01 575.36 184 575.77 184 575.5C184 575.23 179.61 576.55 174.25 578.44C168.89 580.33 160.9 582.78 156.5 583.89C152.1 584.99 147.15 586.18 145.5 586.53C143.85 586.88 136.65 587.41 129.5 587.71C119.59 588.13 114.48 587.87 108 586.59C102.27 585.46 96.07 583.24 89 579.79C79.95 575.36 77.33 573.47 69.98 566.08C63.57 559.62 60.55 555.65 57.79 550C55.78 545.88 53.2 538.9 52.06 534.5C50.46 528.33 49.98 523.42 49.99 513C49.99 502.66 50.57 496.57 52.46 487C53.83 480.13 55.8 472.02 56.85 469C57.9 465.98 58.99 462.15 59.27 460.5C59.55 458.85 60.45 456.15 61.27 454.5C62.1 452.85 65.19 446.34 68.14 440.02C71.09 433.71 75.47 425.16 77.88 421.02C80.29 416.89 85.21 409.23 88.83 404C92.44 398.77 97.67 391.62 100.45 388.1C103.23 384.58 108.58 378.28 112.35 374.1C116.12 369.92 126.13 359.75 134.6 351.5C143.07 343.25 149.99 336.73 149.98 337C149.97 337.27 150.51 336.94 151.18 336.25C151.85 335.56 153.21 335 154.2 335C155.19 335 157.91 333.38 160.25 331.4C162.59 329.43 166.52 326.09 169 323.98C171.48 321.88 175.75 318.55 178.5 316.58C181.25 314.62 184.63 312.23 186 311.28C187.38 310.33 190.52 307.93 193 305.93C195.48 303.94 199.27 301.23 201.42 299.9C203.58 298.58 206.4 295.93 207.7 294C208.99 292.07 210.6 290.45 211.27 290.4C211.95 290.34 215.2 288.54 218.5 286.4C221.8 284.25 225.05 281.82 225.72 281C226.39 280.18 226.95 279.84 226.97 280.25C226.99 280.66 228.69 280.01 230.75 278.8C232.81 277.59 234.73 276.21 235 275.72C235.27 275.23 235.73 274.93 236 275.06C236.27 275.19 237.51 275 238.75 274.65C239.99 274.29 241 273.55 241 273C241 272.45 241.34 272.2 241.75 272.45C242.16 272.69 243.85 272.1 245.5 271.14C247.15 270.17 253.45 267.47 259.5 265.13C265.55 262.79 271.63 260.39 273 259.8C274.38 259.2 276.4 258.62 277.5 258.5C278.6 258.38 283.55 257.52 288.5 256.58C293.45 255.65 302 254.92 307.5 254.95C313 254.99 320.2 255.49 323.5 256.06C326.8 256.64 332.88 258.28 337 259.71C341.13 261.14 345.63 263.08 347 264.02C348.38 264.97 351.41 266.7 353.75 267.87C356.09 269.04 361.24 273.26 365.19 277.25C369.14 281.24 373.97 286.98 375.91 290C377.86 293.02 379.35 295.84 379.22 296.25C379.1 296.66 379.45 297 380 297C380.55 297 381 296.32 381 295.5C381 294.68 382.95 291.64 385.33 288.75C388.45 284.96 391.44 282.67 396.08 280.5C402.27 277.61 403.01 277.5 416.75 277.5C424.59 277.5 431 277.16 431 276.75C431 276.34 429.99 275.09 428.75 273.98C427.51 272.87 426.84 271.97 427.25 271.98C427.66 271.99 427.1 269.64 426 266.75C424.87 263.78 423.73 257.59 423.37 252.5C422.85 245.12 423.13 241.88 424.92 234.5C426.13 229.55 428 222.35 429.08 218.5C430.16 214.65 431.71 209.25 432.53 206.5C433.35 203.75 437.61 188.9 441.99 173.5C446.37 158.1 449.74 145.39 449.47 145.25C449.21 145.11 447.09 145.84 444.75 146.86C442.41 147.88 438.48 149.28 436 149.96C433.52 150.64 429.92 152.16 428 153.34C426.08 154.52 424.27 155.5 424 155.51C423.73 155.52 422.02 156.19 420.21 157.01C418.4 157.83 416.94 158.84 416.96 159.25C416.98 159.66 416.66 159.91 416.25 159.8C415.84 159.69 413.59 160.59 411.25 161.8C408.91 163.01 407 164.34 407 164.75C407 165.16 406.44 165.52 405.75 165.54C405.06 165.56 401.44 167.58 397.7 170.04C393.97 172.49 390.93 174.84 390.95 175.25C390.98 175.66 390.66 175.89 390.25 175.76C389.84 175.63 386.8 177.51 383.5 179.93C380.2 182.35 373.23 188.06 368 192.61C362.77 197.16 353.1 206.46 346.5 213.26C339.9 220.06 330.56 229.76 325.75 234.82C319.02 241.88 315.32 244.86 309.75 247.71C302.92 251.21 301.95 251.42 293 251.46C284.8 251.49 282.83 251.16 278.57 249C275.86 247.63 271.48 244.36 268.82 241.75C266.17 239.14 262.81 234.41 261.35 231.25C259.89 228.09 258.25 222.13 257.72 218C257.07 212.98 257.1 208.02 257.8 203C258.38 198.88 259.82 192.57 261.01 189C262.2 185.43 264.79 179.8 266.76 176.5C268.73 173.2 274.42 166 279.41 160.5C284.39 155 290.06 148.81 291.99 146.74C293.92 144.66 296.29 142.98 297.25 142.99C298.21 142.99 299.83 142.21 300.85 141.25C301.87 140.29 305.8 136.67 309.6 133.22C313.39 129.77 321.25 123.24 327.05 118.72C332.85 114.2 340.72 108.41 344.55 105.86C348.37 103.31 352.85 100.56 354.5 99.74C356.15 98.93 358.21 97.19 359.08 95.88C359.95 94.57 362.2 92.7 364.08 91.72C365.96 90.74 368.17 89.55 369 89.07C369.83 88.59 374.77 86.35 380 84.1C385.23 81.85 394.67 78.25 401 76.12C407.33 73.98 416.77 71.21 422 69.97C427.23 68.72 432.17 67.49 433 67.22C433.83 66.96 435.4 66.61 436.5 66.46C437.6 66.3 441.88 65.68 446 65.09C450.13 64.49 455.08 63.81 457 63.57C458.92 63.33 463.42 62.86 473.5 61.92L474.81 57.71C475.52 55.39 477.39 51.7 478.96 49.5C480.53 47.3 482.86 45.26 484.15 44.96C485.44 44.67 489.42 42.95 493 41.15C498.78 38.24 500.13 37.94 505.25 38.44ZM497 74.5C495.25 80 493.27 84.95 492.59 85.5C491.91 86.05 487.78 86.85 483.43 87.27C479.07 87.7 468.52 88.76 460 89.62C448.66 90.78 439.54 92.48 426 95.97C415.83 98.59 404.8 101.72 401.5 102.92C398.2 104.12 391.23 107.17 386 109.7C380.77 112.23 372.67 116.55 368 119.3C363.33 122.05 357.02 125.9 354 127.86C350.98 129.82 346.62 133.01 344.32 134.96C342.03 136.91 337.79 140.3 334.9 142.5C332.02 144.7 325.15 150.77 319.63 156C314.11 161.23 307.36 167.98 304.61 171C301.87 174.02 298.92 176.99 298.06 177.59C297.2 178.19 294.52 181.57 292.09 185.09C289.67 188.62 286.85 193.41 285.84 195.75C284.48 198.89 284 202.48 284 209.5C284 215.03 284.52 220.1 285.25 221.64C286.48 224.23 286.61 224.26 294 223.63L301.5 222.99C323.12 200.14 333.02 189.97 337.45 185.66C341.88 181.35 349.77 174.38 355 170.16C360.23 165.95 364.61 162.16 364.75 161.75C364.89 161.34 367.36 159.43 370.25 157.51C373.14 155.59 378.65 151.79 382.5 149.06C386.35 146.33 391.19 143.17 393.25 142.05C395.31 140.92 397 139.55 397 139C397 138.45 398.69 136.95 400.75 135.66C402.81 134.38 409.23 131.17 415 128.53C420.77 125.88 428.65 122.64 432.5 121.32C436.35 120 443.55 117.78 448.5 116.38C453.45 114.98 462.23 112.99 468 111.96C473.77 110.93 480.3 109.98 482.5 109.85C484.7 109.72 487.06 109.92 487.75 110.31C488.74 110.86 488.7 111.99 487.55 115.75C486.76 118.36 483.81 128.6 480.99 138.5C478.18 148.4 475.31 157.18 474.61 158C473.91 158.82 472.61 161.52 471.72 164C470.83 166.48 469.14 172.32 467.98 177C466.81 181.68 464.57 189.55 463 194.5C461.43 199.45 459.67 205.86 459.08 208.75C458.48 211.64 457.3 215.69 456.43 217.75C455.57 219.81 453.77 226 452.44 231.5C450.97 237.51 450 244.49 449.99 249C449.99 254.81 450.49 257.51 452.24 260.99C453.48 263.46 456.08 266.51 458 267.77C459.92 269.03 462.51 270.04 463.75 270.03C465.63 270 466.1 269.3 466.6 265.75C466.93 263.41 470.73 250.93 475.06 238C479.38 225.07 487.02 202.57 492.03 188C497.04 173.43 503.64 153.85 506.71 144.5C509.78 135.15 513.73 123.9 515.5 119.5L518.7 111.5C529.4 111.57 534.98 112.09 538 112.7C541.02 113.31 547.77 115.01 553 116.49C558.23 117.96 566.1 121.12 570.5 123.51C576.57 126.81 580.66 130.1 587.47 137.18C594.74 144.73 596.78 147.54 598.23 152C599.46 155.77 600.02 160.49 600 167C599.98 172.23 599.29 180.32 598.46 185C597.64 189.68 596.23 196.43 595.34 200C594.45 203.57 592.36 208.98 590.71 212C589.05 215.02 585.2 221.55 582.15 226.5C579.1 231.45 574.74 237.98 572.45 241C570.16 244.02 564.74 250.28 560.39 254.9C556.05 259.51 549.35 265.85 545.5 268.96C541.65 272.08 536.02 276.28 533 278.29C529.98 280.3 527.16 281.96 526.75 281.97C526.34 281.99 523.19 283.62 519.75 285.59C516.31 287.57 509.11 290.72 503.75 292.59C498.39 294.47 493.99 295.66 493.98 295.25C493.98 294.84 493.64 295.06 493.23 295.73C492.83 296.41 488 297.88 482.5 299C477 300.12 469.8 301.55 466.5 302.18C463.06 302.83 449.17 303.35 433.9 303.41C411.82 303.48 407.01 303.75 405.53 305C404.05 306.24 403.83 307.62 404.21 313C404.54 317.73 405.6 321.38 408.08 326.41C411.09 332.49 412.04 333.54 416 335.21C419.68 336.76 422.95 337.1 434 337.07C442.29 337.04 450.2 336.44 454.5 335.5C458.35 334.65 462.85 333.69 464.5 333.36C466.15 333.03 474.59 330.79 483.25 328.38C491.91 325.97 505.19 321.55 512.75 318.56C520.31 315.56 530.1 311.28 534.5 309.04C538.9 306.81 545.2 303.5 548.5 301.69C551.8 299.89 557.42 296.3 561 293.72C564.58 291.14 569.3 287.82 571.5 286.35C573.7 284.87 580.27 278.9 586.11 273.08C591.94 267.26 598.43 259.8 600.53 256.5C602.63 253.2 606.01 247.57 608.06 244C610.1 240.43 613.23 233.23 615.01 228C616.78 222.77 618.81 214.45 619.5 209.5C620.23 204.24 620.57 195.1 620.32 187.5C620.07 180.35 619.45 172.02 618.92 169C618.39 165.98 616.56 159.68 614.84 155C613.12 150.32 609.44 142.68 606.65 138C603.34 132.45 598.45 126.36 592.54 120.45C587.57 115.47 580.35 109.3 576.5 106.73C572.65 104.16 564.55 99.88 558.5 97.23C552.45 94.57 545.25 91.82 542.5 91.11C539.75 90.4 534.87 88.85 531.65 87.66C526.58 85.79 525.57 84.97 524.07 81.5C523.12 79.3 521.14 75.59 519.67 73.25C517.99 70.58 515.05 67.89 511.75 66.01C508.86 64.36 505.28 63.01 503.8 63.01C502.31 63 500.89 63.34 500.63 63.75C500.38 64.16 498.74 69 497 74.5ZM530.89 148C529.18 152.68 527.64 158.52 527.47 161C527.29 163.48 526.96 166.18 526.73 167C526.49 167.82 526.03 169.18 525.69 170C525.35 170.82 523.67 175.55 521.96 180.5C520.24 185.45 516.59 196.02 513.86 204C511.12 211.98 507.99 221.2 506.9 224.5C505.81 227.8 504.8 231.18 504.66 232C504.52 232.82 503.91 234.4 503.3 235.5C502.7 236.6 501.71 239.41 501.1 241.75C500.5 244.09 499.04 247.01 497.86 248.25C496.18 250 495.85 251.22 496.36 253.75C496.72 255.59 496.57 257.22 496 257.5C495.45 257.77 494.52 260.36 493.92 263.25C493.33 266.14 493.11 268.61 493.42 268.75C493.74 268.89 494.56 268.68 495.25 268.28C495.94 267.88 497.17 267.45 498 267.32C498.83 267.2 501.98 265.87 505 264.38C508.02 262.89 512.98 260.18 516 258.37C519.02 256.55 522.29 255.05 523.25 255.03C524.21 255.02 526.4 253.99 528.11 252.75C529.81 251.51 534.37 247.57 538.23 244C542.09 240.43 548 233.9 551.37 229.5C554.74 225.1 559.03 219.02 560.9 216C562.77 212.98 565.4 208.48 566.76 206C568.12 203.52 570.34 198.13 571.69 194C573.74 187.76 574.18 184.32 574.32 173.5C574.46 162.83 574.18 159.92 572.74 157.25C571.78 155.46 569.72 152.54 568.16 150.75C566.59 148.96 563.78 146.86 561.91 146.09C560.03 145.31 557.83 144.11 557 143.42C556.17 142.73 552.58 141.27 549 140.16C545.42 139.06 540.83 137.88 538.78 137.53C536.18 137.09 534.9 137.3 534.53 138.2C534.23 138.92 532.6 143.32 530.89 148ZM683.5 185.39C681.3 186.89 677.92 189.42 676 191.02C674.08 192.62 669.24 196.64 665.25 199.96C661.23 203.31 658.01 206.78 658.03 207.75C658.04 208.71 657.03 210.5 655.78 211.73C654.52 212.95 652.71 213.97 651.75 213.98C650.79 213.99 647.92 216.36 645.37 219.25C642.83 222.14 638.84 227.43 636.51 231C634.18 234.57 631.13 239.75 629.73 242.5C628.34 245.25 626.2 251.55 624.99 256.5C623.21 263.79 622.89 267.3 623.32 275C623.61 280.28 624.76 287.39 625.89 291C627.06 294.72 629.83 300.07 632.37 303.5C634.81 306.8 638.76 310.91 641.15 312.64C643.54 314.37 648.2 317.06 651.5 318.61C657.18 321.27 658.26 321.43 671.6 321.46C680.47 321.49 686.59 321.06 688.1 320.32C689.42 319.67 692.08 318.89 694 318.57C695.92 318.26 700.2 316.73 703.5 315.18C706.88 313.59 712.5 309.54 716.37 305.93C720.61 301.97 724.31 297.39 726.01 294C727.53 290.98 729.51 286.02 730.4 283C731.44 279.46 732.02 273.75 732.02 267C732.02 258.18 731.57 255.06 729.15 247.5C727.56 242.55 724.13 234.9 721.53 230.5C718.93 226.1 714.59 219.69 711.9 216.25C708.81 212.31 707.19 209.35 707.51 208.25C707.79 207.29 711.44 204.25 715.62 201.5C720.15 198.52 723.59 195.49 724.13 194C724.78 192.2 724.61 190.87 723.52 189.25C722.68 188.01 719.19 185.58 715.75 183.85C710.91 181.4 707.92 180.61 702.5 180.35C698.41 180.15 693.84 180.57 691.5 181.34C689.3 182.08 685.7 183.9 683.5 185.39ZM930.5 185.03C927.75 186.57 924.83 188.57 924 189.46C923.17 190.36 922.26 191.07 921.97 191.04C921.68 191.02 918.6 193.59 915.12 196.75C911.64 199.91 907.15 204.72 905.15 207.44C903.14 210.15 900.51 213.97 899.3 215.94C898.09 217.9 896 221.52 894.64 224C893.29 226.48 891.28 230.98 890.18 234C889.07 237.02 887.49 241.98 886.67 245C885.84 248.02 884.88 255.68 884.53 262C884.1 269.98 884.34 276.1 885.32 282C886.1 286.68 887.77 292.52 889.02 295C890.27 297.48 892.98 301.75 895.03 304.5C897.09 307.25 900.06 310.7 901.63 312.16C903.21 313.62 906.97 316.26 910 318.03C913.03 319.8 917.53 321.86 920 322.61C922.47 323.36 928.55 324.26 933.5 324.6C940.84 325.11 944.16 324.83 951.5 323.06C956.59 321.83 963.97 319.07 968.5 316.7C973.44 314.11 978.6 310.38 982 306.93C985.03 303.85 989.19 298.56 991.25 295.17C993.31 291.78 995 288.1 995 287C995 285.9 994.33 284.77 993.5 284.5C992.59 284.2 988.86 286.86 984.03 291.25C979.65 295.24 974.37 299.9 972.28 301.62C970.2 303.33 966.47 305.76 964 307.01C961.53 308.26 956.69 310.35 953.25 311.64C949.81 312.94 945.31 313.99 943.25 313.98C941.19 313.97 937.7 313.12 935.5 312.1C933.3 311.07 929.87 308.5 927.88 306.37C925.6 303.93 923.46 300.09 922.12 296C920.85 292.14 919.99 286.96 919.99 283.25C920 279.81 920.45 276.1 921 275C921.66 273.68 923.61 272.69 926.75 272.09C929.36 271.59 934.2 270.63 937.5 269.96C940.8 269.28 945.53 268.08 948 267.29C950.47 266.49 956.33 263.94 961 261.62C965.67 259.3 972.09 255.51 975.25 253.2C978.41 250.89 982.86 246.64 985.14 243.75C987.42 240.86 989.94 236.93 990.74 235C991.54 233.07 992.44 228.57 992.74 225C993.06 221.22 992.75 216.2 992.01 213C991.3 209.98 989.7 205.7 988.45 203.5C987.2 201.3 983.1 196.61 979.34 193.07C975.21 189.19 969.92 185.42 966 183.57C960.54 181 958.14 180.48 951 180.3C946.33 180.18 940.92 180.57 939 181.15C937.08 181.74 933.25 183.48 930.5 185.03ZM813 185.78C809.42 187.48 804.25 190.35 801.5 192.14C798.75 193.94 793.35 197.95 789.5 201.05C785.65 204.15 778.31 210.92 773.2 216.09C768.08 221.27 761.03 229.77 757.51 235C754 240.23 750.26 246.75 749.18 249.5C748.11 252.25 746.45 258.1 745.48 262.5C744.17 268.45 743.88 272.61 744.36 278.75C744.8 284.49 745.8 288.75 747.64 292.75C749.09 295.91 751.95 300.98 753.99 304C756.04 307.02 759.46 310.83 761.6 312.46C763.75 314.09 767.75 316.33 770.5 317.44C774.65 319.12 777.62 319.45 788 319.37C798.37 319.29 801.78 318.85 808 316.82C812.13 315.48 818.65 312.47 822.5 310.14C826.35 307.81 831.53 304.48 834 302.73C836.47 300.99 843.79 294.26 850.25 287.78C856.71 281.3 861.99 275.44 861.98 274.75C861.97 274.06 863.34 272.15 865.04 270.5C866.73 268.85 869.68 265.25 871.59 262.5C873.66 259.52 874.85 256.79 874.53 255.75C874.24 254.79 873.55 254 873 254C872.45 254 870.09 254.95 867.75 256.11C865.41 257.28 859.9 260.56 855.5 263.42C851.1 266.27 846.55 269.26 845.38 270.05C844.22 270.85 840.62 273.32 837.38 275.55C834.15 277.78 828.46 281.26 824.75 283.3C821.04 285.33 818 287.45 818 288C818 288.55 816.76 289.3 815.25 289.67C813.74 290.04 809.35 291.79 805.5 293.56C801.65 295.32 795.58 297.54 792 298.48C788.2 299.47 784.05 299.93 782 299.58C780.08 299.25 777.69 298.19 776.69 297.24C775.7 296.28 774.29 293.48 773.56 291C772.83 288.52 772.37 283.8 772.52 280.5C772.68 277.2 773.98 270.79 775.4 266.25C776.83 261.71 778.84 257.21 779.88 256.25C780.91 255.29 784.09 249.77 786.94 244C789.79 238.23 793.15 232.15 794.41 230.5C795.67 228.85 797.52 225.93 798.51 224C799.51 222.07 802.56 217.8 805.3 214.5C808.04 211.2 811 208.11 811.89 207.64C812.77 207.17 814.51 207.05 815.75 207.39C817.29 207.81 818.31 209.18 818.99 211.75C819.54 213.81 819.99 217.64 819.99 220.25C820 224.19 820.51 225.51 823 228C825.91 230.91 826.25 230.99 834.42 230.75C841.44 230.54 843.23 230.14 845.17 228.35C846.45 227.16 848.3 223.79 849.27 220.85C850.36 217.54 851.03 212.54 851.02 207.75C851.01 202.1 850.39 198.47 848.75 194.34C847.22 190.49 845.21 187.63 842.5 185.45C840.04 183.47 836.96 182.03 834.5 181.72C832.3 181.45 828.03 181.55 825 181.95C821.97 182.35 816.58 184.07 813 185.78ZM807.96 255.75C807.95 257.26 807.29 259.63 806.5 261C805.71 262.38 805.06 264.18 805.05 265C805.03 266.33 805.14 266.33 806 265C806.53 264.18 806.98 263.84 806.98 264.25C806.99 264.66 808.46 264.11 810.25 263.03C812.04 261.95 814.4 261.05 815.5 261.03C816.6 261.01 818.96 260.09 820.75 259C822.54 257.9 824.01 256.44 824.02 255.75C824.03 255.06 821.67 253.49 818.77 252.25C815.87 251.02 812.53 250.01 811.33 250C810.14 250 808.91 250.68 808.58 251.5C808.26 252.32 807.98 254.24 807.96 255.75ZM277.5 285.37C273.65 286.74 267.57 289.09 264 290.58C260.43 292.08 253 295.73 247.5 298.71C242 301.68 234.8 305.88 231.5 308.03C228.2 310.19 223.81 312.86 221.75 313.98C219.69 315.09 216.54 317.28 214.75 318.85C212.96 320.42 210.38 322.29 209 323.01C207.63 323.72 201.1 328.37 194.5 333.34C187.9 338.3 179.85 344.65 176.61 347.43C173.37 350.22 165.94 356.76 160.11 361.96C154.27 367.17 147.25 373.67 144.5 376.42C141.75 379.17 135.5 385.94 130.62 391.46C125.73 396.98 119.18 404.88 116.06 409C112.94 413.13 108.33 419.65 105.82 423.5C103.31 427.35 100.1 432.52 98.7 435C97.29 437.48 94.49 442.88 92.48 447C90.47 451.13 87.12 459.23 85.02 465C82.93 470.77 80.02 480.45 78.55 486.5C76.1 496.61 75.91 498.87 76.2 514.5C76.51 530.99 76.61 531.68 79.47 537.5C81.09 540.8 84.46 545.63 86.96 548.23C89.46 550.83 92.4 552.95 93.5 552.95C94.6 552.95 97.98 554.06 101 555.43C104.02 556.79 109.2 558.6 112.5 559.46C115.8 560.31 121.43 561.01 125 561.02C128.57 561.02 135.32 560.32 140 559.45C144.68 558.58 150.75 557.2 153.5 556.39C156.25 555.58 159.63 555.19 161 555.53C162.59 555.92 165.5 555.27 169 553.73C172.02 552.41 176.75 550.6 179.5 549.7C182.25 548.8 186.07 547 188 545.7C189.93 544.4 192.4 543.05 193.5 542.69C194.6 542.34 198.14 540.58 201.36 538.77C204.58 536.97 208.75 534.6 210.62 533.5C212.48 532.4 217.72 528.92 222.26 525.76C226.79 522.61 232.3 518.76 234.5 517.22C236.7 515.67 239.06 513.19 239.75 511.71C240.44 510.22 242.33 508.21 243.96 507.25C245.6 506.29 247.67 504.15 248.58 502.5C249.54 500.76 249.97 498.55 249.62 497.25C249.28 496.01 246.86 493.31 244.25 491.24C241.64 489.18 238.02 486.81 236.21 485.99C234.4 485.17 232.94 484.16 232.96 483.75C232.98 483.34 231.88 482.77 230.5 482.5C229.13 482.23 225.86 482.31 223.25 482.69C219.26 483.26 217.05 484.59 209.48 490.94C204.53 495.1 198.31 500.08 195.68 502C193.04 503.92 188.55 507.31 185.69 509.53C182.84 511.75 177.57 515.41 174 517.67C170.43 519.93 163.9 523.86 159.5 526.4C155.1 528.94 146.55 533.11 140.5 535.66C132.52 539.03 127.72 540.44 123 540.79C118.57 541.12 114.83 540.76 111.25 539.64C107.49 538.47 105.14 536.93 102.98 534.25C101.32 532.19 99.07 528.14 97.98 525.25C96.81 522.15 96 517.54 96 514C96 510.7 96.72 503.84 97.6 498.75C98.48 493.66 100.24 485.9 101.52 481.5C102.79 477.1 106.5 468.33 109.74 462C112.99 455.67 118.36 446 121.67 440.5C124.98 435 130.57 426.77 134.1 422.21C137.62 417.66 141.54 412.48 142.81 410.71C144.07 408.95 155.44 397.26 168.06 384.75C180.67 372.24 191.45 362 192 362C192.55 362 195.23 360.09 197.96 357.75C200.69 355.41 204.18 352.55 205.71 351.4C207.25 350.24 213.23 346.15 219 342.3C224.77 338.45 233.1 333.25 237.5 330.74C241.9 328.23 249.77 324.13 255 321.62C260.23 319.12 271.48 314.09 280 310.45C288.52 306.8 298.2 303 301.5 301.99C304.8 300.97 310.88 299.58 315 298.88C321.61 297.77 323.07 297.82 327.25 299.31C330.1 300.32 332.7 302.08 333.75 303.71C334.84 305.39 335.49 308.31 335.48 311.46C335.46 315.02 334.69 317.82 332.87 321C331.45 323.48 327.41 328.07 323.89 331.22C320.38 334.36 315.02 338.57 312 340.56C308.98 342.55 304.7 345.04 302.5 346.09C300.3 347.15 296.48 349.15 294 350.54C291.52 351.93 286.13 353.92 282 354.97C277.88 356.02 271.35 357.09 267.5 357.34C263.65 357.59 255.77 357.15 250 356.36C244.23 355.57 235.9 354.53 231.5 354.04C225.14 353.34 223.04 353.45 221.25 354.58C219.58 355.64 219 356.96 218.99 359.75C218.98 362.16 219.98 365.11 221.8 368C223.36 370.48 225.95 373.63 227.57 375.01C229.18 376.39 232.75 378.61 235.5 379.94C239.69 381.97 242.45 382.43 252.5 382.81C259.32 383.07 267.52 382.76 271.5 382.09C275.35 381.45 281.43 380.46 285 379.9C288.57 379.33 295.55 377.47 300.5 375.76C305.45 374.05 312.65 370.99 316.5 368.96C320.35 366.93 326.42 363.22 330 360.71C333.58 358.19 338.76 353.97 341.52 351.32C344.29 348.67 348.45 343.91 350.77 340.75C353.1 337.59 355.95 332.64 357.11 329.75C358.79 325.55 359.11 323.09 358.72 317.5C358.4 312.83 357.4 308.83 355.74 305.5C354.37 302.75 351.28 298.48 348.86 296C346.44 293.52 341.09 289.61 336.98 287.29C331.23 284.05 327.42 282.72 320.5 281.53C315.55 280.68 309.7 280.03 307.5 280.09C305.3 280.16 299.23 280.81 294 281.54C288.77 282.27 281.35 284 277.5 285.37ZM590 304.48C586.42 307.33 580.35 311.76 576.5 314.33C572.65 316.9 568.83 319 568 318.99C567.17 318.99 562.9 320.84 558.5 323.11C554.1 325.38 550.05 327.58 549.5 328C548.95 328.41 543.33 331.1 537 333.96C530.67 336.82 524.6 339.57 523.5 340.06C522.4 340.55 519.48 341.66 517 342.53C514.52 343.4 507.66 345.66 501.75 347.56C495.84 349.45 490.24 351.79 489.3 352.75C488.37 353.71 484.43 355.31 480.55 356.29C476.67 357.27 472.38 358.3 471 358.57C469.63 358.84 464.23 359.93 459 361C453.77 362.06 444.55 363.22 438.5 363.57C431.7 363.96 424.45 363.74 419.5 363C415.1 362.34 411.05 361.48 410.5 361.07C409.95 360.67 407.25 359.5 404.5 358.46C401.17 357.21 397.66 354.69 394 350.91C390.98 347.79 387.38 342.95 386 340.16C384.63 337.37 383.16 335.29 382.75 335.54C382.34 335.79 380.42 339.38 378.5 343.5C376.45 347.89 371.98 354.63 367.7 359.75C363.69 364.56 358.17 370.3 355.45 372.5C352.73 374.7 350.05 377.02 349.5 377.66C348.95 378.3 344.67 381.29 340 384.31C335.33 387.32 327.67 391.59 323 393.78C318.33 395.98 310.23 399.17 305 400.87C299.77 402.57 290.77 404.94 285 406.14C276.94 407.81 270.79 408.34 258.5 408.41C247.72 408.47 240.71 408.04 237 407.09C233.98 406.31 229.91 404.96 227.97 404.09C226.02 403.22 222.87 401.07 220.97 399.31C219.06 397.56 214.46 393.4 210.75 390.06C205.91 385.71 203.44 384.14 202 384.5C200.9 384.77 191.79 393.28 181.75 403.4C171.71 413.52 162.15 423.46 160.5 425.49C158.85 427.51 154.49 433.29 150.81 438.33C147.14 443.38 142.07 450.99 139.56 455.25C137.05 459.51 135.23 463.45 135.5 464C135.77 464.55 134.37 468.49 132.37 472.75C130.37 477.01 128.12 482.19 127.37 484.25C126.62 486.31 126.34 487.98 126.75 487.96C127.16 487.93 126.98 488.49 126.34 489.21C125.7 489.92 124.46 493.99 123.59 498.25C122.72 502.51 122 508.02 122 510.5C122 512.98 122.34 515 122.75 514.99C123.16 514.99 125.3 514.49 127.5 513.89C129.7 513.28 135.55 510.56 140.5 507.85C145.45 505.14 150.39 502.37 151.48 501.71C152.57 501.04 155.39 499.26 157.73 497.75C160.08 496.24 162.34 495 162.75 495.01C163.16 495.01 164.96 493.66 166.75 492.01C168.54 490.35 170.21 489.11 170.47 489.25C170.72 489.39 174.1 487.14 177.97 484.25C181.83 481.36 185.79 479.01 186.75 479.01C187.71 479.02 191.2 476.55 194.5 473.53C197.8 470.51 202.28 466.79 204.46 465.27C206.63 463.75 210.91 461.68 213.96 460.68C217.01 459.68 221.75 458.63 224.5 458.34C227.92 457.98 232.03 458.5 237.5 459.98C241.9 461.16 246.44 462.67 247.59 463.32C248.73 463.97 251.79 465.63 254.39 467C258.43 469.14 259.22 469.29 259.96 468C260.45 467.13 260.37 465.23 259.76 463.5C259.17 461.82 258.99 458.19 259.36 455.25C259.71 452.36 260.81 447.86 261.8 445.25C262.79 442.64 265.79 437.8 268.47 434.5C271.15 431.2 274.6 427.15 276.13 425.5C277.67 423.85 281.52 419.9 284.71 416.73C287.89 413.55 290.84 410.97 291.25 410.98C291.66 410.99 294.59 409.43 297.75 407.52C300.91 405.61 306.2 403.09 309.5 401.93C312.8 400.77 316.07 399.29 316.77 398.66C317.47 398.02 318.37 397.81 318.77 398.2C319.17 398.58 321.75 398.16 324.5 397.25C328.22 396.04 332.83 395.65 342.5 395.77C352.39 395.88 356.04 396.28 357.75 397.46C358.99 398.31 361.01 399 362.25 399C363.49 399 366.75 399.82 369.5 400.82C372.25 401.83 376.3 403.79 378.5 405.19L382.5 407.72C386.38 401.5 389.98 397.13 393 394C396.02 390.86 400.41 387.1 402.75 385.65C405.09 384.19 407.9 383 409 383C410.1 383 413.48 382.33 416.5 381.5C419.52 380.67 422 379.44 421.99 378.75C421.99 377.8 424.19 377.64 431.24 378.09C438.36 378.55 441.25 379.19 443.75 380.84C445.54 382.03 446.99 383.34 446.97 383.75C446.96 384.16 449.77 387.34 453.22 390.82C457.55 395.18 459.97 396.93 461 396.44C461.83 396.06 464.64 394.9 467.25 393.87C469.86 392.84 472.45 392.23 473 392.5C473.55 392.77 474.15 392.44 474.33 391.75C474.58 390.84 477.79 390.5 486.08 390.51C497.46 390.52 497.53 390.54 506.25 394.76C513.1 398.08 516.55 400.57 522.14 406.25C526.06 410.24 530.68 415.93 532.39 418.89C534.1 421.85 535.95 424.51 536.5 424.79C537.05 425.07 538.07 424.45 538.77 423.4C539.46 422.36 540.02 420.6 540.01 419.5C539.99 418.4 537.36 414.8 534.15 411.5C530.77 408.03 527.43 403.39 526.23 400.5C525.09 397.75 523.59 392.35 522.9 388.5C521.88 382.79 521.89 380.3 522.99 375C523.72 371.42 525.12 366.7 526.09 364.5C527.05 362.3 529.57 359.14 531.67 357.47C533.78 355.8 536.74 353.67 538.25 352.72C540.22 351.49 543.14 351 548.5 351C554.81 351 556.07 350.72 556.44 349.25C556.69 348.29 557.65 344.8 558.58 341.5C559.5 338.2 561.55 333.81 563.13 331.75C564.71 329.69 565.99 327.21 565.97 326.25C565.96 325.29 566.97 323.55 568.22 322.39C569.48 321.24 571.94 319.44 573.69 318.39C575.45 317.35 576.58 316.06 576.19 315.52C575.78 314.94 576.11 314.81 577 315.2C577.83 315.56 579.96 314.99 581.75 313.93C583.54 312.87 585 312.23 585 312.5C585 312.77 587.14 312.32 589.75 311.49C592.36 310.65 597.09 309.98 600.25 309.99C603.41 309.99 606 309.89 606 309.75C605.99 309.61 604.87 306.8 603.51 303.5C602.14 300.2 600.66 297.14 600.22 296.71C599.77 296.27 598.75 296.68 597.95 297.61C597.15 298.55 593.58 301.64 590 304.48ZM847 324.36C843.97 326.63 840.15 329.28 838.5 330.27C836.85 331.25 831.22 334.09 826 336.59C820.78 339.08 813.13 341.96 809 342.98C804.88 344.01 797.67 345.15 793 345.52C788.19 345.89 781.14 345.71 776.75 345.09C772.49 344.49 765.51 342.58 761.25 340.85C756.74 339.01 750.78 335.51 747 332.46C743.42 329.58 739.49 326.27 738.25 325.11L736 323C730.19 327.69 725.58 330.99 722 333.35C718.42 335.72 711.9 339.06 707.5 340.77C703.1 342.49 697.25 344.55 694.5 345.35C691.75 346.15 685 347.11 679.5 347.48C674 347.85 665.9 347.7 661.5 347.15C657.1 346.6 650.8 345.23 647.5 344.1C644.2 342.97 641.43 342.15 641.35 342.27C641.27 342.4 641.05 346.54 640.85 351.49L640.5 360.47C651.35 362.47 655.63 363.8 657 364.72C658.38 365.64 661.43 368.22 663.79 370.45C666.15 372.68 668.07 374.95 668.05 375.5C668.03 376.05 668.43 378.08 668.94 380C669.67 382.74 671.15 384.31 675.69 387.22C678.88 389.26 683.3 393.07 685.5 395.69C687.7 398.3 690.66 402.03 692.09 403.97C693.51 405.91 695.42 408.96 696.34 410.75L698 414C707.69 406.26 712.75 402.81 715.5 401.33C718.25 399.85 723.65 397.83 727.5 396.84C731.35 395.85 736.3 395.04 738.5 395.04C740.7 395.05 744.41 395.49 746.75 396.02C749.09 396.56 752.91 397.9 755.25 398.99C757.59 400.08 761.52 402.9 764 405.26C766.48 407.61 769.17 409.51 770 409.48C770.83 409.45 773.3 408.91 775.5 408.28C777.7 407.65 784.45 406.7 790.5 406.17C799.32 405.39 802.24 405.47 805.25 406.6C807.39 407.4 810.4 407.74 812.25 407.4C814.86 406.92 816.78 407.55 822 410.61C825.58 412.7 831.8 417.81 835.83 421.96C839.86 426.11 843.88 430.85 844.76 432.5C845.64 434.15 847.85 438.42 849.67 442C851.48 445.58 852.98 449.29 852.99 450.25C852.99 451.21 853.45 452.23 854 452.5C854.55 452.77 855.7 451.31 856.56 449.25C857.41 447.19 859.44 440.77 861.05 435C862.67 429.23 863.99 423.26 863.99 421.75C864 420.24 865.3 414.16 866.89 408.25C868.48 402.34 871.22 392.33 872.98 386C874.74 379.67 876.59 371.69 877.09 368.25C877.59 364.81 878.7 360.09 879.55 357.75C880.4 355.41 881.19 353.04 881.3 352.49C881.41 351.93 884.08 348.89 887.23 345.74C890.38 342.58 893.42 340 893.98 340C894.54 340 895 339.55 895 339C895 338.45 894.65 338.11 894.22 338.25C893.8 338.39 890.14 335.35 886.1 331.5C882.07 327.65 876.22 321.13 873.12 317C870.02 312.88 866.81 309.41 865.99 309.31C865.17 309.2 861.8 311.61 858.5 314.67C855.2 317.74 850.03 322.09 847 324.36ZM584.74 341.72C583.22 343.25 581.57 345.63 581.08 347C580.59 348.38 579.58 355.51 578.84 362.86C578.1 370.2 577.16 376.39 576.75 376.61C576.34 376.82 576.34 377.97 576.75 379.15C577.46 381.18 577.27 381.27 573.5 380.68C571.3 380.33 565.67 379.49 561 378.82C556.33 378.14 551.6 377.57 550.5 377.55C548.93 377.51 548.43 378.25 548.18 381C548 382.92 548.1 385.85 548.39 387.5C548.73 389.34 551.17 392.8 554.72 396.44C558.28 400.11 561.75 402.7 563.75 403.19C565.54 403.64 567.23 404.67 567.5 405.5C567.77 406.33 567.32 409.14 566.49 411.75C565.66 414.36 564.29 419.42 563.45 423C562.6 426.58 560.4 434.45 558.55 440.5C556.7 446.55 553.63 457.35 551.71 464.5C549.8 471.65 547.69 479.98 547.02 483C546.36 486.02 545.42 489.85 544.93 491.5C544.44 493.15 543.38 497.42 542.56 501C541.75 504.58 540.68 512.67 540.19 519C539.7 525.33 539.58 533.88 539.93 538C540.27 542.13 541.18 546.63 541.96 548C542.73 549.38 544.3 551.88 545.43 553.58C546.57 555.27 548.85 557.79 550.5 559.18C552.15 560.58 555.08 562.52 557 563.49C559.64 564.82 562.66 565.23 569.25 565.13C575.71 565.03 578.98 564.5 581.75 563.08C583.81 562.03 588.15 558.76 591.39 555.83C594.63 552.9 599.18 547.58 601.5 544C603.83 540.42 607.48 534.35 609.61 530.5C611.75 526.65 613.87 522.6 614.32 521.5C614.77 520.4 615.52 517.48 615.99 515L616.84 510.5C614.02 514.38 613.21 515.73 613.23 516C613.25 516.27 610.96 518.98 608.15 522C605.34 525.02 603.03 527.84 603.02 528.25C603.01 528.66 602.21 529.01 601.25 529.02C600.29 529.03 596.13 532.54 592 536.81C587.88 541.09 582.25 545.99 579.5 547.71C576.75 549.43 573.83 550.96 573 551.11C572.17 551.27 570.6 551.1 569.5 550.75C568.4 550.4 566.68 548.18 565.68 545.81C564.3 542.56 564.02 540.27 564.53 536.5C564.9 533.75 565.86 528.58 566.66 525C567.47 521.42 569.92 511.3 572.11 502.5C574.3 493.7 577.69 481.33 579.64 475C581.59 468.67 584.51 459.67 586.13 455C587.75 450.33 589.75 443.8 590.59 440.5C591.43 437.2 592.71 433.38 593.45 432C594.19 430.63 596.47 424.55 598.52 418.5C600.57 412.45 602.87 406.26 603.62 404.75C604.59 402.83 605.98 401.85 608.25 401.51C610.04 401.24 614.88 401.26 619 401.55C624.59 401.94 627.26 401.68 629.5 400.54C631.15 399.7 633.51 399.01 634.75 399.01C635.99 399 638.13 398.55 639.5 398C640.88 397.45 642.71 395.99 643.58 394.75C644.49 393.45 644.93 391.45 644.63 390C644.12 387.59 643.65 387.45 631.8 386.17C625.04 385.44 617.81 384.42 615.75 383.92C613.69 383.41 611.77 382.33 611.5 381.5C611.23 380.67 611.44 376.96 611.99 373.25C612.53 369.54 613.48 364.7 614.09 362.5C614.71 360.3 615.28 354.88 615.36 350.46C615.46 344.6 615.07 341.74 613.91 339.96C613.03 338.61 610.56 336.94 608.41 336.27C606.26 335.59 603.6 335.07 602.5 335.13C601.4 335.18 597.58 336.05 594 337.08C589.99 338.23 586.44 340.01 584.74 341.72ZM911.76 359.96C910.08 359.99 907.85 361.16 906.01 363C903.67 365.34 903 366.88 903 370C903 372.2 902.36 375.69 901.58 377.75C900.8 379.81 899.85 383.3 899.48 385.5C899.1 387.7 897.29 394.23 895.46 400C893.62 405.77 891.8 412.3 891.4 414.5C891 416.7 889.37 422.33 887.77 427C886.18 431.67 884.26 438.2 883.5 441.5C882.74 444.8 880.54 452.23 878.6 458C876.66 463.77 873.54 473.67 871.67 480C869.8 486.33 867.74 493.75 867.1 496.5C866.45 499.25 864.43 506.45 862.6 512.5C860.77 518.55 858.31 526.99 857.13 531.25C855.96 535.51 855 539.9 855 541C855 542.1 854.55 543.23 854 543.5C853.33 543.83 853.33 544.67 854 546C854.55 547.1 855 548.9 855 550C855 551.1 855.56 553.18 856.25 554.62C856.94 556.07 859.08 558.04 861 559.02C862.92 560 866.3 560.95 868.5 561.15L872.5 561.5C873.58 549.1 874.66 542.58 875.59 539C876.53 535.42 877.9 531.26 878.64 529.75C879.39 528.24 880.45 527 881 527C881.55 527 883.39 523.96 885.09 520.25C886.79 516.54 889.6 511.48 891.34 509.02C893.08 506.56 896.86 501.72 899.75 498.27C902.64 494.82 908.04 489.15 911.75 485.67C915.46 482.19 920.97 477.73 924 475.75C927.03 473.77 931.86 471.22 934.75 470.08C937.64 468.93 941.24 467.99 942.75 467.98C944.26 467.97 946.96 468.42 948.75 468.98C950.84 469.64 952.6 471.16 953.67 473.25C954.59 475.04 955.33 478.52 955.31 481C955.29 483.69 952.97 492.53 949.53 503C946.37 512.63 943.16 522.86 942.39 525.75C941.63 528.64 940.99 535.16 940.99 540.25C940.98 548.36 941.32 550.18 943.73 555C945.25 558.02 948.96 563.12 951.99 566.32C955.54 570.06 958.75 572.46 961 573.06C962.92 573.57 965.96 573.99 967.75 573.99C970 574 971.31 573.39 972 572C972.55 570.9 973.01 564.94 973.02 558.75C973.03 552.56 973.7 542.89 974.52 537.25C975.33 531.61 976.69 525.31 977.54 523.25C978.39 521.19 979.78 516.58 980.63 513C981.6 508.87 982.17 501.59 982.18 493C982.2 484.23 981.72 477.92 980.82 475C980.05 472.52 977.75 467.91 975.71 464.75C972.89 460.38 970.62 458.24 966.25 455.84C962.5 453.78 958.59 452.51 955 452.19C951.97 451.93 945.9 452.27 941.5 452.97C936.71 453.72 931.09 455.44 927.5 457.24C924.2 458.9 918.13 462.67 914 465.61C909.88 468.56 905.6 471.87 904.5 472.97C903.4 474.07 902.16 474.98 901.75 474.99C901.34 474.99 901.22 474.33 901.5 473.5C901.78 472.67 902.45 472.23 903 472.5C903.61 472.8 903.8 471.82 903.5 470C903.22 468.31 903.65 465.8 904.48 464.25C905.3 462.74 908.49 455.2 911.57 447.5C914.66 439.8 918.2 430.8 919.45 427.5C920.7 424.2 923.18 417.67 924.97 413C926.76 408.33 928.34 402.92 928.48 401C928.61 399.08 930.75 392.33 933.23 386C935.71 379.67 938.06 372.7 938.46 370.5C938.86 368.3 938.91 365.04 938.59 363.25C938.26 361.41 937.03 359.4 935.75 358.62C934.51 357.86 932.15 357.01 930.5 356.73C928.85 356.45 924.58 357.06 921 358.08C917.42 359.1 913.27 359.95 911.76 359.96ZM411.41 411.13C409.71 412.98 407.4 415.85 406.29 417.5C404.98 419.44 403.84 423.69 403.08 429.5C402.43 434.45 401.44 440.98 400.88 444C400.32 447.02 399.45 451.08 398.95 453C398.44 454.92 398.03 457.51 398.02 458.75C398.01 459.99 397.37 462.46 396.6 464.25C395.82 466.04 394.47 469.75 393.58 472.5C392.7 475.25 391.99 478.85 392 480.5C392.01 482.15 391.14 487.77 390.06 493C388.98 498.23 387.57 506.55 386.93 511.5C386.28 516.45 385.83 522.3 385.91 524.5C385.99 526.7 386.48 529.85 387 531.5C387.52 533.15 388.96 535.53 390.22 536.8C391.63 538.21 393.43 538.98 394.93 538.8C396.73 538.58 398 537.2 399.82 533.5C401.64 529.8 402.25 526.94 402.2 522.5C402.16 518.44 402.98 514.07 404.76 509C406.21 504.88 409.51 497.9 412.09 493.5C414.67 489.1 417.52 484.83 418.43 484C419.34 483.17 420.07 482.16 420.04 481.75C420.02 481.34 423.94 476.93 428.75 471.96C433.56 466.99 438.29 462.94 439.25 462.96C440.21 462.98 443.69 460.86 446.98 458.25C450.27 455.64 456.13 451.25 460 448.5C463.87 445.75 468.26 442.57 469.77 441.44C471.27 440.3 474.98 438.35 478 437.1C481.19 435.78 484.44 435.07 485.75 435.41C486.99 435.74 488.75 437.24 489.67 438.75C490.73 440.5 491.13 442.59 490.78 444.5C490.47 446.15 489.06 449.75 487.64 452.5C486.23 455.25 484.35 459.08 483.48 461C482.6 462.92 480.57 466.98 478.97 470C477.37 473.02 476.05 476.96 476.03 478.75C476.01 480.54 474.61 485.04 472.9 488.75C471.2 492.46 468.84 497.3 467.66 499.5C466.48 501.7 464.57 504.4 463.42 505.5C462.27 506.6 460.13 511.33 458.68 516C456.84 521.92 456.03 526.78 456.01 532C455.99 537.17 456.67 541.52 458.19 546C459.83 550.83 461.57 553.62 464.95 556.88C467.45 559.28 471.75 562.32 474.5 563.63C477.25 564.94 481.2 566.35 483.27 566.76C485.34 567.16 487.03 567.84 487.02 568.25C487.01 568.66 489.14 568.74 491.75 568.43C494.36 568.11 499.42 567.02 503 566C507 564.86 511.81 562.45 515.5 559.75C518.8 557.33 522.96 553.7 524.75 551.68C526.54 549.66 528 547.1 528 546C528 544.9 527.55 543.77 527 543.5C526.45 543.23 524.31 543.68 522.25 544.52C520.19 545.35 516.7 546.9 514.5 547.95C512.3 549 507.13 550.85 503 552.06C496.21 554.04 495.17 554.11 492 552.83C490.08 552.05 487.92 550.31 487.21 548.96C486.43 547.47 486.13 544.82 486.46 542.25C486.76 539.91 488.18 535.19 489.62 531.75C491.07 528.31 495.62 518.52 499.74 510C503.86 501.48 509.76 489.33 512.86 483L518.5 471.5L518.5 443.31C512.3 431.07 509.26 426.05 507.75 424.26C506.24 422.47 504.24 421 503.3 421C502.37 421 499.33 419.84 496.55 418.42C493.77 417 490.71 415.42 489.75 414.92C488.79 414.41 486.54 413.99 484.75 413.98C482.96 413.97 478.58 414.9 475 416.04C471.42 417.17 466.92 419.07 465 420.24C463.08 421.42 460.24 423.31 458.7 424.44C457.16 425.57 451.99 429.84 447.2 433.93C442.42 438.02 437.38 442.29 436 443.42C434.63 444.55 434.07 444.8 434.77 443.99C435.46 443.17 436.03 442.16 436.02 441.75C436.01 441.34 435.55 441.23 435 441.5C434.45 441.77 434 441.55 434 441C434 440.45 434.86 436.29 435.9 431.75C436.95 427.21 438.1 420.8 438.47 417.5C438.87 413.94 438.71 410.38 438.07 408.75C437.48 407.24 436.21 405.61 435.25 405.13C434.29 404.65 431.48 403.97 429 403.62C425.43 403.12 423.46 403.49 419.5 405.37C416.75 406.68 413.11 409.27 411.41 411.13ZM651.55 423.5C651.33 424.6 650.22 429.44 649.08 434.25C647.93 439.06 647 444.8 647 447C647 449.68 648.23 453.36 650.75 458.16C653.74 463.87 655.11 465.49 657.5 466.15C659.85 466.8 660.77 466.6 661.77 465.24C662.46 464.28 663.03 461.81 663.02 459.75C663.01 457.63 664.1 453.94 665.53 451.25C666.92 448.64 669.53 444.7 671.33 442.5C673.38 439.98 674.87 436.83 675.33 434C675.72 431.52 675.73 427.92 675.35 426C674.89 423.72 673.05 420.96 670.07 418.08C667.56 415.66 663.7 412.38 661.5 410.81C659.3 409.23 656.98 407.96 656.34 407.97C655.7 407.99 654.45 411.04 653.56 414.75C652.67 418.46 651.77 422.4 651.55 423.5ZM317.5 425.72C313.65 427.22 309.38 429.4 308 430.58C306.63 431.76 304.6 432.98 303.5 433.3C302.4 433.61 297.35 437.84 292.27 442.69C283.06 451.48 283.04 451.51 283 456.5C282.97 460.99 283.35 461.87 286.73 465.14C288.81 467.15 292.41 469.74 294.75 470.89C297.09 472.05 299.56 473.01 300.25 473.02C300.94 473.03 303.19 471.34 305.26 469.27C307.34 467.2 310.64 463.48 312.61 461C314.58 458.52 319.64 452.94 323.85 448.59C328.06 444.25 333.52 439.31 336 437.63C338.48 435.95 342.19 434 344.25 433.29C346.55 432.5 349.23 432.29 351.16 432.75C352.9 433.16 355.31 434.4 356.51 435.5C357.77 436.65 359.2 439.82 359.9 443C360.81 447.19 360.83 450.52 359.98 457C359.36 461.67 357.97 468.65 356.88 472.5C355.8 476.35 353.92 480.5 352.71 481.73C351.49 482.95 349.83 484.78 349 485.79C347.82 487.24 345.4 487.78 337.5 488.36C332 488.77 324.58 489.55 321 490.11C317.42 490.66 312.02 491.58 309 492.14C305.98 492.7 299 494.71 293.5 496.61C288 498.51 280.61 501.96 277.08 504.28C273.55 506.6 269.36 510.08 267.77 512C265.39 514.88 264.78 516.73 264.31 522.5C263.81 528.68 264.04 530.09 266.29 534.5C267.69 537.25 271.01 541.62 273.67 544.2C276.33 546.79 281.2 550.16 284.5 551.7C289.87 554.21 291.6 554.5 301 554.5C311.26 554.5 311.68 554.41 319.41 550.5C323.76 548.3 327.54 545.83 327.81 545C328.08 544.17 329.24 542.48 330.4 541.22C331.55 539.97 333.06 538.96 333.75 538.97C334.44 538.99 335.41 540.01 335.91 541.25C336.41 542.49 337.55 545.98 338.45 549C339.35 552.02 341.08 555.63 342.29 557C343.51 558.38 345.74 560.51 347.25 561.75C348.76 562.99 350.45 563.77 351 563.5C351.55 563.23 352 563.45 352 564C352 564.55 352.79 565.01 353.75 565.02C354.71 565.03 356.3 564.46 357.28 563.77C358.64 562.81 359.43 559.73 360.56 551C361.39 544.67 362.92 536.58 363.96 533C365.01 529.42 366.99 523.8 368.38 520.5C369.77 517.2 372.51 508.65 374.47 501.5C376.44 494.35 378.74 483.1 379.6 476.5C380.55 469.15 380.89 462.18 380.47 458.5C380.1 455.2 378.94 449.91 377.9 446.75C376.85 443.59 375.99 439.76 375.98 438.25C375.96 436.26 374.65 434.32 371.23 431.21C368.63 428.86 363.8 425.86 360.5 424.56C356.46 422.97 351.57 422.02 345.5 421.67C340.55 421.37 333.8 421.55 330.5 422.07C327.2 422.58 321.35 424.23 317.5 425.72ZM722.59 426.22C720.02 427.72 716.64 430.87 715.07 433.22C712.48 437.09 712.2 438.36 712.1 446.5C712.04 451.45 711.53 457.52 710.96 460C710.39 462.48 708.85 469 707.55 474.5C706.25 480 703.84 489.67 702.19 496C700.55 502.33 698.03 512.45 696.6 518.5C694.92 525.62 694.15 531.27 694.43 534.5C694.68 537.44 696.07 541.77 697.8 545C699.42 548.02 701.96 551.4 703.45 552.5L706.17 554.5C709.2 550.63 710.07 548.26 710.04 546.75C710.02 545.24 711.54 539.84 713.42 534.75C715.31 529.66 717.65 523.48 718.63 521C719.62 518.52 722.25 513.35 724.5 509.5C726.74 505.65 730.27 500.25 732.34 497.5C734.42 494.75 738.45 489.9 741.31 486.71C744.16 483.53 749.42 478.55 753 475.65C756.58 472.75 761.75 468.84 764.5 466.94C767.25 465.05 772.88 461.58 777 459.22C781.13 456.86 786.75 454.21 789.5 453.33C792.34 452.42 795.69 452 797.25 452.36C798.83 452.73 800.21 453.85 800.5 455C800.77 456.1 800.48 458.69 799.84 460.75C799.21 462.81 796.48 469.23 793.77 475C791.07 480.77 787.34 488.65 785.49 492.5C783.63 496.35 780.01 504 777.45 509.5C774.88 515 771.69 522.2 770.37 525.5C769.05 528.8 767.44 535.1 766.79 539.5C765.83 545.96 765.87 548.84 766.98 554.5C767.73 558.35 769.29 563.14 770.43 565.14C771.57 567.14 774.52 570.57 777 572.75C779.48 574.93 783.86 577.91 786.75 579.36C791.19 581.59 793.31 582 800.5 582C806.33 582 810.88 581.37 815 580C818.3 578.9 824.26 575.93 828.25 573.4C832.24 570.86 836.28 567.83 837.23 566.65C838.18 565.47 838.97 563.49 838.98 562.25C838.99 560.82 838.27 559.82 837 559.5C835.9 559.23 831.51 560.18 827.25 561.61C822.99 563.05 817.81 565.07 815.75 566.11C813.69 567.15 810.09 568.42 807.75 568.93C804.57 569.63 802.68 569.5 800.25 568.43C798.26 567.56 796.47 565.74 795.63 563.75C794.65 561.45 794.51 559.4 795.13 556.75C795.61 554.69 802.77 539.39 811.04 522.75C819.31 506.11 827.01 489.35 828.15 485.5C829.83 479.8 830.15 476.46 829.85 467.5C829.5 456.99 829.32 456.21 825.81 450C823.79 446.42 819.97 441.41 817.32 438.86C814.67 436.3 810.92 433.39 809 432.38C806.36 431 803.29 430.55 796.5 430.55C790.17 430.56 786.16 431.09 783 432.36C780.52 433.35 776.48 435.16 774 436.39C771.52 437.61 767.33 440.17 764.68 442.06C762.03 443.95 756.51 448.31 752.43 451.75C748.34 455.19 744.66 457.99 744.25 457.98C743.84 457.98 744.17 457.53 745 456.98C746.24 456.17 746.26 455.87 745.14 455.25C744.29 454.78 744 453.57 744.35 452C744.66 450.63 745.83 445.67 746.94 441C748.04 436.33 748.96 431.04 748.98 429.25C748.99 427.09 748.16 425.16 746.5 423.5C744.44 421.44 743.08 421.01 738.75 421.08C735.86 421.12 732.09 421.68 730.38 422.33C728.66 422.97 725.15 424.73 722.59 426.22ZM1030.5 430.54C1028.3 432.32 1025.27 435.51 1023.77 437.64C1022.26 439.76 1020.09 443.98 1018.93 447C1017.78 450.02 1016.53 454.36 1016.17 456.63C1015.73 459.33 1015.85 460.5 1016.5 460C1017.05 459.58 1017.8 457.95 1018.17 456.37C1018.54 454.79 1019.87 450.8 1021.13 447.5C1022.39 444.2 1025.12 439.59 1027.21 437.25C1029.29 434.91 1030.98 432.66 1030.96 432.25C1030.94 431.84 1032.18 430.95 1033.71 430.27C1035.24 429.59 1037.58 427.9 1038.9 426.52C1040.23 425.13 1041.13 424.02 1040.9 424.04C1040.68 424.06 1039.15 424.81 1037.5 425.69C1035.85 426.58 1032.7 428.76 1030.5 430.54ZM615.45 446.5C612.95 453.65 610.67 460.4 610.38 461.5L609.86 463.5C611.72 460.4 613.89 457.79 615.88 455.71C618.9 452.54 619.45 451.31 619.22 448.21C619.06 446.17 619.38 442.1 619.93 439.17C620.47 436.24 620.7 433.54 620.43 433.17C620.16 432.8 619.95 432.73 619.97 433C619.98 433.27 617.95 439.35 615.45 446.5ZM1046.81 443.75C1044.71 446.09 1043 448.9 1043 450C1043 451.1 1043.67 452.23 1044.5 452.5C1045.33 452.77 1047.01 452.39 1048.25 451.64C1049.73 450.75 1051.26 447.91 1052.7 443.39C1053.91 439.6 1054.7 436.16 1054.45 435.75C1054.2 435.34 1053.57 435 1053.05 435C1052.53 435 1051.77 436.01 1051.36 437.25C1050.95 438.49 1048.9 441.41 1046.81 443.75ZM1173.25 453.76C1171.74 453.9 1168.25 454.35 1165.5 454.76L1160.5 455.5C1169.39 464.02 1171.8 466.05 1171.58 465.5C1171.36 464.95 1172.46 461.8 1174.03 458.5C1175.59 455.2 1176.67 452.27 1176.41 452C1176.15 451.73 1175.96 451.95 1175.97 452.5C1175.98 453.05 1174.76 453.62 1173.25 453.76ZM1200.73 456.12C1201.95 457.43 1202.97 459.4 1202.99 460.5C1203 461.6 1202.28 463.63 1201.38 465C1199.97 467.16 1199.93 467.81 1201.12 469.78C1201.88 471.03 1203.06 472.04 1203.75 472.03C1204.44 472.01 1204.78 471.55 1204.5 471C1204.22 470.45 1204.45 469.77 1205 469.5C1205.55 469.23 1206 467.65 1206 466C1206 464.35 1205.3 461.54 1204.45 459.75C1203.6 457.96 1201.92 455.88 1200.7 455.12L1198.5 453.74L1200.73 456.12ZM1179.4 464.25C1178.94 467.26 1179.22 469.45 1180.37 471.75C1181.27 473.54 1182.56 475.34 1183.24 475.75C1184.14 476.29 1184.23 476.08 1183.56 475C1183.06 474.17 1182.71 469.79 1182.8 465.25C1182.88 460.71 1182.79 457 1182.59 457C1182.39 457 1181.74 457.68 1181.14 458.5C1180.54 459.33 1179.76 461.91 1179.4 464.25ZM1080.84 479.11C1080.96 480.51 1081.79 481 1084 481C1086.27 481 1087.34 480.33 1088.4 478.25C1089.17 476.74 1090.09 473.36 1090.44 470.75C1090.79 468.14 1090.88 466 1090.65 466C1090.42 466 1088.07 468.53 1085.45 471.61C1082.82 474.7 1080.75 478.08 1080.84 479.11ZM1189 476.5C1188.45 476.77 1188 477.34 1188 477.75C1188 478.16 1190.1 478.5 1192.66 478.5C1195.23 478.5 1197.5 478.05 1197.7 477.5C1197.91 476.95 1196.93 475.26 1195.54 473.75C1194.14 472.24 1193.34 470.99 1193.75 470.98C1194.16 470.98 1193.83 470.53 1193 470C1192.17 469.47 1191.16 469.02 1190.75 469.02C1190.34 469.01 1190 470.58 1190 472.5C1190 474.42 1189.55 476.23 1189 476.5ZM634.45 478.91C634.2 481.43 634 498.8 634.02 517.5L634.06 551.5C638.28 558.98 640.63 561.88 642 562.76C643.38 563.65 645.52 564.4 646.76 564.44C648.18 564.48 649.25 563.76 649.64 562.5C649.98 561.4 650.39 556 650.55 550.5C650.73 544.38 651.66 537.4 652.96 532.5C654.13 528.1 655.73 523.83 656.53 523C657.33 522.17 659.11 517.45 660.49 512.5C661.9 507.44 663 500.87 663 497.5C662.99 494.2 662.57 489.92 662.06 488C661.52 486 659.39 482.9 657.06 480.75C654.83 478.69 651.65 476.33 650 475.5C648.18 474.59 644.63 474.06 640.96 474.16L634.92 474.32L634.45 478.91ZM605.12 479C604.39 481.48 603.56 483.95 603.26 484.5C602.97 485.05 603.71 484.6 604.91 483.5C606.53 482.02 607.01 480.6 606.76 478L606.43 474.5L605.12 479ZM1036.54 481C1035.73 481 1034.05 482.12 1032.79 483.48C1031.32 485.07 1030.77 486.51 1031.25 487.48C1031.7 488.4 1033.09 488.9 1034.75 488.75C1036.89 488.56 1038.01 487.51 1039.81 484C1041.08 481.52 1041.98 478.62 1041.81 477.55C1041.53 475.81 1041.31 475.89 1039.75 478.3C1038.79 479.79 1037.34 481 1036.54 481ZM1112.25 487.03C1110.19 489.24 1108.72 491.21 1109 491.41C1109.28 491.61 1110.51 491.37 1111.75 490.88C1112.99 490.4 1114.69 488.31 1115.53 486.25C1116.37 484.19 1116.85 482.05 1116.6 481.5C1116.36 480.95 1116.12 481.06 1116.08 481.75C1116.04 482.44 1114.31 484.81 1112.25 487.03ZM1057.57 494C1056.13 495.38 1054.96 497.06 1054.97 497.75C1054.99 498.44 1055.79 499.01 1056.75 499.03C1057.71 499.04 1059.45 498.03 1060.61 496.78C1061.77 495.52 1063.24 492.92 1063.88 491C1064.51 489.08 1065.03 487.16 1065.02 486.75C1065.01 486.34 1064.56 486 1064.02 486C1063.48 486 1062.4 487.24 1061.62 488.75C1060.83 490.26 1059.01 492.63 1057.57 494ZM1082.44 508.07C1080.48 509.21 1078.65 511.13 1078.36 512.32C1078.08 513.52 1078.22 514.87 1078.67 515.33C1079.13 515.78 1080.51 515.89 1081.75 515.58C1083.06 515.24 1084.83 513.33 1086 511C1087.1 508.8 1087.88 505.99 1087.74 504.75C1087.52 502.81 1087.38 502.74 1086.74 504.25C1086.33 505.21 1084.4 506.93 1082.44 508.07ZM1107.64 516.72C1105.52 518.89 1104.74 520.43 1105.25 521.47C1105.66 522.31 1106.39 523 1106.86 523C1107.34 523 1108.93 521.76 1110.41 520.25C1111.88 518.74 1113.54 516.15 1114.09 514.5C1114.65 512.85 1114.95 510.38 1114.77 509C1114.45 506.59 1114.38 506.62 1112.61 510C1111.6 511.92 1109.36 514.95 1107.64 516.72ZM1132.03 518.25C1132.02 518.66 1132.79 519.01 1133.75 519.03C1134.71 519.05 1136.19 518.26 1137.04 517.28C1137.89 516.3 1139.24 514.27 1140.04 512.76C1140.84 511.25 1141.28 509.9 1141 509.76C1140.72 509.62 1138.6 511.3 1136.28 513.5C1133.97 515.7 1132.05 517.84 1132.03 518.25ZM1019.01 526C1020.02 530.13 1020.88 532.6 1020.91 531.5C1020.95 530.4 1020.07 525.23 1018.98 520C1017.88 514.77 1016.72 510.27 1016.4 510C1016.08 509.73 1016.12 511.52 1016.49 514C1016.86 516.48 1017.99 521.88 1019.01 526ZM1151.82 528.44C1149.25 531.77 1143.4 538.14 1138.82 542.58C1134.25 547.03 1126.9 553.6 1122.5 557.18C1118.1 560.77 1109.78 566.85 1104 570.7C1098.22 574.55 1091.47 578.85 1089 580.26C1086.53 581.67 1083.83 583.6 1083 584.55C1082.17 585.5 1085.78 583.68 1091 580.5C1096.22 577.33 1103.88 572.45 1108 569.65C1112.13 566.86 1119.1 561.65 1123.5 558.07C1127.9 554.5 1136.42 546.61 1142.42 540.54C1148.43 534.47 1154.78 527.25 1156.53 524.5C1158.28 521.75 1160.37 518.04 1161.18 516.25C1161.99 514.46 1162.37 513 1162.02 513C1161.68 513 1160.3 515.11 1158.95 517.69C1157.6 520.27 1154.4 525.11 1151.82 528.44ZM1038.82 517.5C1037.91 519.15 1035.56 522.3 1033.59 524.5C1031.61 526.7 1030 528.84 1030 529.25C1030 529.66 1030.68 530.34 1031.5 530.75C1032.44 531.22 1033.79 530.75 1035.11 529.5C1036.27 528.4 1038.06 525.81 1039.11 523.75C1040.15 521.69 1040.88 518.76 1040.74 517.25L1040.47 514.5L1038.82 517.5ZM1056.25 530.54C1055.01 531.34 1054 532.67 1054 533.5C1054 534.33 1054.67 535.23 1055.5 535.5C1056.33 535.78 1058.33 534.67 1060 533C1062.01 530.99 1063.17 528.65 1063.53 525.93C1063.81 523.7 1063.9 521.69 1063.71 521.48C1063.51 521.26 1062.27 522.89 1060.93 525.08C1059.59 527.28 1057.49 529.74 1056.25 530.54ZM1078.46 540C1075.95 543.02 1074.25 545.87 1074.7 546.33C1075.14 546.78 1076.4 546.9 1077.5 546.6C1078.6 546.29 1080.37 544.57 1081.43 542.77C1082.49 540.97 1083.73 538.04 1084.18 536.25C1084.7 534.2 1084.63 533 1084 533C1083.45 533 1083.01 533.34 1083.02 533.75C1083.03 534.16 1080.98 536.98 1078.46 540ZM1095.9 552.13C1095.95 552.61 1096.45 553 1097 553C1097.55 553 1098.67 551.65 1099.5 550C1100.33 548.35 1100.85 546.75 1100.67 546.45C1100.49 546.14 1099.32 547.1 1098.06 548.58C1096.81 550.06 1095.84 551.66 1095.9 552.13ZM1034.76 574.99C1036.27 578.01 1039.75 582.76 1042.5 585.55C1046.5 589.6 1048.7 590.94 1053.5 592.25C1058.11 593.52 1060.6 593.68 1064.25 592.95C1066.86 592.43 1071.25 590.99 1074.01 589.75C1076.76 588.51 1078.79 587.39 1078.51 587.25C1078.23 587.11 1075.08 588.13 1071.5 589.5C1067.48 591.05 1063 591.99 1059.75 591.98C1056.84 591.97 1052.72 591.14 1050.5 590.13C1048.3 589.12 1045 586.77 1043.16 584.9C1041.33 583.03 1038.75 579.7 1037.44 577.5C1036.13 575.3 1034.13 571.02 1033 568C1031.88 564.98 1030.5 562.05 1029.93 561.5C1029.37 560.95 1029.61 562.52 1030.46 565C1031.31 567.48 1033.25 571.97 1034.76 574.99ZM1048.75 569.45C1049.16 569.7 1049.97 569.59 1050.54 569.21C1051.11 568.84 1052.12 568.07 1052.77 567.51C1053.43 566.96 1053.98 565.94 1053.98 565.25C1053.99 564.56 1053.66 564.05 1053.25 564.11C1052.84 564.16 1051.49 565.29 1050.25 566.61C1049.01 567.92 1048.34 569.2 1048.75 569.45ZM1066.75 578.33C1067.16 578.79 1067.05 579.06 1066.5 578.92C1065.95 578.79 1064.26 579.2 1062.75 579.84C1061.24 580.48 1060 581.67 1060 582.5C1060 583.33 1060.67 584 1061.5 584C1062.33 584 1063.9 583.55 1065 583C1066.1 582.45 1067.67 580.65 1068.5 579C1069.33 577.35 1069.87 575.52 1069.72 574.92C1069.57 574.32 1068.68 574.65 1067.72 575.67C1066.77 576.68 1066.33 577.88 1066.75 578.33ZM961.5 197.29C964.12 197.47 964.62 198.01 965.43 201.5C966.18 204.74 965.91 206.83 964.03 212.5C962.75 216.35 959.9 222.43 957.7 226C955.5 229.57 951.38 235.43 948.53 239C945.69 242.57 939.68 248.76 935.18 252.75C930.68 256.74 926.1 260.45 925 261C923.67 261.67 923.17 261.67 923.5 261C923.78 260.45 923.55 259.32 923 258.5C922.3 257.44 922.77 253.97 924.62 246.75C926.07 241.11 929.05 232.9 931.26 228.5C933.47 224.1 937.27 217.57 939.72 214C942.16 210.43 946.26 205.63 948.83 203.34C951.4 201.06 954.63 198.71 956 198.13C957.38 197.55 959.85 197.17 961.5 197.29ZM694.46 219.88C695.14 220.77 696.04 223.3 696.45 225.5C696.85 227.7 697.63 231.75 698.17 234.5C698.71 237.25 699.38 246.25 699.65 254.5C700.03 265.98 699.78 271.26 698.55 277C697.67 281.13 695.43 287.65 693.57 291.5C691.32 296.14 688.8 299.6 686.09 301.75C683.84 303.54 679.41 305.91 676.25 307.02C673.09 308.12 669.26 309.02 667.75 309.02C666.24 309.01 663.09 308.26 660.75 307.34C658.41 306.43 655.69 304.97 654.71 304.09C653.72 303.22 652.17 300.48 651.27 298C649.87 294.18 649.8 292.67 650.81 288C651.46 284.98 653.02 280.02 654.27 277C655.51 273.98 658.52 267.9 660.96 263.5C663.39 259.1 666.96 253.25 668.88 250.5C670.81 247.75 674.21 242.97 676.44 239.88C678.67 236.79 683.36 230.67 686.86 226.27C692.41 219.29 693.38 218.48 694.46 219.88ZM344 502.06C344.28 502.03 343.89 503.69 343.14 505.75C342.39 507.81 340.52 511.98 339 515C337.47 518.02 334.2 523.2 331.72 526.5C329.24 529.8 325.25 534.06 322.85 535.96C320.46 537.86 315.91 540.22 312.75 541.21C307.13 542.96 306.9 542.95 302.5 541C300.02 539.9 297.49 537.99 296.87 536.75C296.24 535.49 296.03 532.97 296.39 531C296.75 529.08 298.72 525.5 300.77 523.06C302.82 520.62 306.98 517.04 310 515.11C313.02 513.18 318.42 510.38 322 508.87C325.58 507.37 331.88 505.24 336 504.13C340.13 503.03 343.73 502.09 344 502.06Z" />
</svg>